# xmcd
#
# Track frame offsets: 
#        150
#        19597
#        32554
#        45779
#        55975
#        75953
#        90230
#        100740
#        117227
#        129226
#
# Disc length: 1884 seconds
#
# Revision: 0
# Processed by: cddbd v1.5.2PL0 Copyright (c) Steve Scherf et al.
# Submitted via: ExactAudioCopy v1.3
#
DISCID=5f075a0a
DTITLE=Nico Brina - Live At The Castle 2016
DYEAR=2017
DGENRE=Boogie Woogie, Piano Blues
TTITLE0=Boogie Woogie Castle Baby (Solo)
TTITLE1=Rolls Royce Boogie Woogie (Solo)
TTITLE2=Rocking Good Way To Boogie (Solo)
TTITLE3=Cooee Corinne (Solo)
TTITLE4=Steam Roller Boogie (Solo)
TTITLE5=Barrel Of Monkeys (Solo)
TTITLE6=Don't Mess Around With A Pianoman (Solo)
TTITLE7=Who Cares, Just Boogie (Solo)
TTITLE8=Blues Will Help You Survive (Solo)
TTITLE9=Tobee's Boogie (Solo)
EXTD=
EXTT0=
EXTT1=
EXTT2=
EXTT3=
EXTT4=
EXTT5=
EXTT6=
EXTT7=
EXTT8=
EXTT9=
PLAYORDER=
